<svg width="26" height="17" viewBox="0 0 26 17" fill="none" xmlns="http://www.w3.org/2000/svg">
<path fill-rule="evenodd" clip-rule="evenodd" d="M20.5789 2.14737H4.47368C3.1889 2.14737 2.14737 3.1889 2.14737 4.47368V12.5263C2.14737 13.8111 3.1889 14.8526 4.47368 14.8526H20.5789C21.8637 14.8526 22.9053 13.8111 22.9053 12.5263V4.47368C22.9053 3.1889 21.8637 2.14737 20.5789 2.14737ZM4.47368 0C2.00294 0 0 2.00294 0 4.47368V12.5263C0 14.9971 2.00294 17 4.47368 17H20.5789C23.0497 17 25.0526 14.9971 25.0526 12.5263V4.47368C25.0526 2.00294 23.0497 0 20.5789 0H4.47368Z" fill="white"/>
<path fill-rule="evenodd" clip-rule="evenodd" d="M0.862048 2.14321C1.16083 1.63101 1.81827 1.458 2.33047 1.75678L13.0673 8.01994C13.5795 8.31873 13.7525 8.97616 13.4537 9.48837C13.155 10.0006 12.4975 10.1736 11.9853 9.87479L1.24848 3.61164C0.736272 3.31285 0.563263 2.65542 0.862048 2.14321Z" fill="white"/>
<path fill-rule="evenodd" clip-rule="evenodd" d="M24.1906 2.14324C23.8918 1.63103 23.2344 1.45802 22.7222 1.75681L11.9853 8.01997C11.4731 8.31875 11.3001 8.97619 11.5989 9.48839C11.8977 10.0006 12.5551 10.1736 13.0673 9.87482L23.8042 3.61166C24.3164 3.31288 24.4894 2.65544 24.1906 2.14324Z" fill="white"/>
</svg>
