<svg width="20" height="22" viewBox="0 0 20 22" fill="none" xmlns="http://www.w3.org/2000/svg">
<path fill-rule="evenodd" clip-rule="evenodd" d="M16.2963 8.98987H3.7037C2.8855 8.98987 2.22222 9.62409 2.22222 10.4065V18.1977C2.22222 18.98 2.8855 19.6143 3.7037 19.6143H16.2963C17.1145 19.6143 17.7778 18.98 17.7778 18.1977V10.4065C17.7778 9.62409 17.1145 8.98987 16.2963 8.98987ZM3.7037 6.86499C1.6582 6.86499 0 8.45056 0 10.4065V18.1977C0 20.1536 1.6582 21.7391 3.7037 21.7391H16.2963C18.3418 21.7391 20 20.1536 20 18.1977V10.4065C20 8.45056 18.3418 6.86499 16.2963 6.86499H3.7037Z" fill="white"/>
<path fill-rule="evenodd" clip-rule="evenodd" d="M14.3088 8.00915C14.3862 7.65856 14.4272 7.29289 14.4272 6.917C14.4272 4.30321 12.4451 2.18431 10 2.18431C7.5549 2.18431 5.57276 4.30321 5.57276 6.917C5.57276 7.29289 5.61375 7.65856 5.69122 8.00915H3.60961C3.55683 7.6534 3.52941 7.28862 3.52941 6.917C3.52941 3.09684 6.42639 0 10 0C13.5736 0 16.4706 3.09684 16.4706 6.917C16.4706 7.28862 16.4432 7.6534 16.3904 8.00915H14.3088Z" fill="white"/>
<path d="M9 13C9 12.4477 9.44772 12 10 12C10.5523 12 11 12.4477 11 13V15C11 15.5523 10.5523 16 10 16C9.44772 16 9 15.5523 9 15V13Z" fill="white"/>
</svg>
