<svg width="18" height="23" viewBox="0 0 18 23" fill="none" xmlns="http://www.w3.org/2000/svg">
<path fill-rule="evenodd" clip-rule="evenodd" d="M9 2.22857C7.13604 2.22857 5.625 3.72522 5.625 5.57143C5.625 7.41764 7.13604 8.91429 9 8.91429C10.8639 8.91429 12.375 7.41763 12.375 5.57143C12.375 3.72523 10.8639 2.22857 9 2.22857ZM3.375 5.57143C3.375 2.49441 5.8934 0 9 0C12.1066 0 14.625 2.49441 14.625 5.57143C14.625 8.64845 12.1066 11.1429 9 11.1429C5.8934 11.1429 3.375 8.64845 3.375 5.57143ZM0 21.1714C0 16.2482 4.02944 12.2571 9 12.2571C13.9706 12.2571 18 16.2482 18 21.1714C18 21.7868 17.4963 22.2857 16.875 22.2857H1.125C0.50368 22.2857 0 21.7868 0 21.1714ZM2.34333 20.0571H15.6567C15.1211 16.8951 12.3446 14.4857 9 14.4857C5.65538 14.4857 2.87892 16.8951 2.34333 20.0571Z" fill="white"/>
</svg>
